<?xml version="1.0" encoding="utf-8"?>
<!-- Generator: Adobe Illustrator 21.1.0, SVG Export Plug-In . SVG Version: 6.00 Build 0)  -->
<svg version="1.1" id="Layer_1" xmlns="http://www.w3.org/2000/svg" xmlns:xlink="http://www.w3.org/1999/xlink" x="0px" y="0px"
	 viewBox="0 0 50 50" style="enable-background:new 0 0 50 50;" xml:space="preserve">
<style type="text/css">
	.st0{fill:none;}
	.st1{fill:#FFFFFF;}
</style>
<rect class="st0" width="50" height="50"/>
<g>
	<path class="st1" d="M23.3,36.1v-2.8c0-0.7,0-1.4,0.1-1.9c0.1-0.5,0.2-1,0.5-1.4c0.2-0.4,0.5-0.8,0.9-1.2c0.4-0.4,0.8-0.9,1.3-1.4
		l3.9-3.9c0.8-0.8,1.3-1.9,1.3-3.3c0-1.3-0.4-2.4-1.3-3.2c-0.9-0.8-1.9-1.2-3.3-1.2c-1.4,0-2.6,0.5-3.5,1.4c-0.9,1-1.4,2.1-1.6,3.5
		l-6.5-0.5c0.2-1.6,0.6-3.1,1.3-4.3c0.6-1.3,1.5-2.3,2.5-3.2c1-0.9,2.2-1.5,3.6-2c1.3-0.5,2.8-0.7,4.5-0.7c1.5,0,2.9,0.2,4.2,0.7
		c1.3,0.4,2.4,1.1,3.4,1.9c1,0.8,1.7,1.9,2.2,3.1c0.5,1.2,0.8,2.6,0.8,4.2c0,1.1-0.2,2.1-0.5,2.9c-0.3,0.8-0.7,1.6-1.2,2.3
		c-0.5,0.7-1.1,1.4-1.7,2c-0.7,0.6-1.4,1.3-2.1,2c-0.5,0.4-0.9,0.8-1.2,1.2c-0.3,0.3-0.6,0.7-0.8,1c-0.2,0.4-0.4,0.8-0.5,1.2
		s-0.2,1-0.2,1.6v1.9H23.3z M22.2,43.1c0-1.1,0.4-2,1.2-2.8c0.8-0.8,1.7-1.2,2.9-1.2c1.1,0,2,0.4,2.8,1.1c0.8,0.7,1.2,1.7,1.2,2.7
		s-0.4,2-1.2,2.8c-0.8,0.8-1.7,1.2-2.9,1.2c-0.5,0-1.1-0.1-1.5-0.3c-0.5-0.2-0.9-0.5-1.3-0.8c-0.4-0.3-0.7-0.7-0.9-1.2
		C22.4,44.2,22.2,43.7,22.2,43.1z"/>
</g>
</svg>
